<svg xmlns="http://www.w3.org/2000/svg" xmlns:xlink="http://www.w3.org/1999/xlink" version="1.1" width="3222.222222222222" height="765.9888119529787" viewBox="0 0 3222.222222222222 765.9888119529787">

	<g transform="scale(11.11111111111111) translate(10, 10)">
		<defs id="SvgjsDefs1934"></defs>
		<g id="SvgjsG1935" featureKey="S6ay6y-0" transform="matrix(0.663129985332489,0,0,0.663129985332489,-8.156498635158009,-9.350132057328928)" fill="#00aabb">
			<circle xmlns="http://www.w3.org/2000/svg" cx="22.5" cy="24.3" r="10.2"></circle>
			<circle xmlns="http://www.w3.org/2000/svg" cx="50" cy="24.3" r="10.2" fill="#ddaa00"></circle>
			<circle xmlns="http://www.w3.org/2000/svg" cx="77.5" cy="24.3" r="10.2"></circle>
			<circle xmlns="http://www.w3.org/2000/svg" cx="22.5" cy="51" r="10.2"></circle>
			<circle xmlns="http://www.w3.org/2000/svg" cx="50" cy="51" r="10.2"></circle>
			<circle xmlns="http://www.w3.org/2000/svg" cx="77.5" cy="51" r="10.2" fill="#ddaa00"></circle>
			<circle xmlns="http://www.w3.org/2000/svg" cx="50" cy="77.7" r="10.2"></circle>
			<circle xmlns="http://www.w3.org/2000/svg" cx="22.5" cy="77.7" r="10.2" fill="#ddaa00"></circle>
		</g>
		<g id="SvgjsG1936" featureKey="j5pGhi-0" transform="matrix(2.476717710494995,0,0,2.476717710494995,67.48460129412052,-4.738843579249364)" fill="#dde6dd">
			<path d="M6.5918 8.203 q2.470703125 0 4.1015625 1.787109375 q1.474609375 1.640625 1.474609375 3.876953125 t-1.5625 3.9111 t-4.0137 1.6748 q-2.4609375 0 -4.018554688 -1.674804688 t-1.5576 -3.9111 q0 -2.2265625 1.474609375 -3.8671875 q1.630859375 -1.796875 4.1015625 -1.796875 z M6.5918 9.551 q-1.708984375 0 -2.939453125 1.26953125 t-1.2305 3.0664 q0 1.162109375 0.5615234375 2.172851563 t1.5186 1.5527 t2.0898 0.54199 q1.15234375 0 2.104492188 -0.5419921875 t1.5088 -1.5527 t0.55664 -2.1729 q0 -1.796875 -1.23046875 -3.06640625 t-2.9395 -1.2695 z M25.097828125 10.7031 l-1.0938 0.68359 q-1.416015625 -1.89453125 -3.8671875 -1.89453125 q-1.962890625 0 -3.256835938 1.259765625 t-1.2939 3.0664 q0 1.171875 0.595703125 2.211914063 t1.6309 1.6064 t2.3242 0.56641 q2.373046875 0 3.8671875 -1.875 l1.0938 0.71289 q-0.771484375 1.15234375 -2.065429688 1.782226563 t-2.9541 0.62988 q-2.529296875 0 -4.204101563 -1.611328125 t-1.6748 -3.916 q0 -1.5625 0.7861328125 -2.895507813 t2.1484 -2.0801 t3.0615 -0.74707 q1.0546875 0 2.045898438 0.322265625 t1.6846 0.84473 t1.1719 1.333 z M31.591771875 17.9297 q-1.015625 0.546875 -1.9921875 0.087890625 q-1.19140625 -0.908203125 -1.1328125 -2.587890625 l0 -4.5313 l2.5391 0 l0 -1.1816 l-2.5488 0 l0 -5.1758 l-1.3867 0 l0 11.123 q-0.01953125 1.171875 0.537109375 2.1484375 q0.91796875 1.552734375 2.5 1.640625 q0.83984375 0.029296875 1.9140625 -0.380859375 q-0.166015625 -0.41015625 -0.4296875 -1.142578125 z M39.277346875 8.203 q2.470703125 0 4.1015625 1.787109375 q1.474609375 1.640625 1.474609375 3.876953125 t-1.5625 3.9111 t-4.0137 1.6748 q-2.4609375 0 -4.018554688 -1.674804688 t-1.5576 -3.9111 q0 -2.2265625 1.474609375 -3.8671875 q1.630859375 -1.796875 4.1015625 -1.796875 z M39.277346875 9.551 q-1.708984375 0 -2.939453125 1.26953125 t-1.2305 3.0664 q0 1.162109375 0.5615234375 2.172851563 t1.5186 1.5527 t2.0898 0.54199 q1.15234375 0 2.104492188 -0.5419921875 t1.5088 -1.5527 t0.55664 -2.1729 q0 -1.796875 -1.23046875 -3.06640625 t-2.9395 -1.2695 z M46.865275 14.541 l0 -1.2891 q0.15625 -0.966796875 0.44921875 -1.572265625 q0.68359375 -1.6796875 1.8359375 -2.4609375 t1.9141 -0.78125 q0.56640625 0 1.2109375 0.37109375 l-0.71289 1.1523 q-0.908203125 -0.33203125 -1.801757813 0.537109375 t-1.2354 1.8945 q-0.25390625 0.908203125 -0.25390625 3.408203125 l0 3.623 l-1.4063 0 l0 -4.8828 z M63.3500625 17.3633 q0.87890625 -1.46484375 1.0546875 -2.880859375 q0 -10.16601563 0 -10.14648438 l-1.3672 0 l0 5.9766 q-0.869140625 -1.064453125 -1.943359375 -1.586914063 t-2.3535 -0.52246 q-2.265625 0 -3.876953125 1.650390625 t-1.6113 4.0039 q0 2.314453125 1.62109375 3.955078125 t3.9063 1.6406 q1.30859375 0 2.456054688 -0.5029296875 t2.1143 -1.5869 z M58.8964625 18.1348 q-1.162109375 0 -2.133789063 -0.5712890625 t-1.5479 -1.5869 t-0.57617 -2.168 q0 -1.1328125 0.5810546875 -2.172851563 t1.5625 -1.6113 t2.0947 -0.57129 q1.1328125 0 2.1484375 0.5712890625 t1.5625 1.5527 t0.54688 2.1924 q0 1.865234375 -1.23046875 3.115234375 t-3.0078 1.25 z M67.011759375 4.59 l1.3867 0 l0 14.854 l-1.3867 0 l0 -14.854 z M80.263796875 15.6348 l1.1523 0.61523 q-0.556640625 1.123046875 -1.30859375 1.806640625 t-1.6895 1.04 t-2.1191 0.35645 q-2.6171875 0 -4.091796875 -1.713867188 t-1.4746 -3.8721 q0 -2.041015625 1.25 -3.6328125 q1.58203125 -2.03125 4.248046875 -2.03125 q2.724609375 0 4.365234375 2.080078125 q1.162109375 1.46484375 1.171875 3.65234375 l-9.6191 0 q0.0390625 1.875 1.19140625 3.071289063 t2.8418 1.1963 q0.8203125 0 1.591796875 -0.2880859375 t1.3135 -0.75684 t1.1768 -1.5234 z M80.263796875 12.7539 q-0.2734375 -1.103515625 -0.80078125 -1.762695313 t-1.3965 -1.0645 t-1.8262 -0.40527 q-1.572265625 0 -2.705078125 1.015625 q-0.8203125 0.7421875 -1.240234375 2.216796875 l7.9688 0 z"></path>
		</g>
	</g>
</svg>
